<mxfile host="app.diagrams.net" agent="Mozilla/5.0 (Windows NT 10.0; Win64; x64) AppleWebKit/537.36 (KHTML, like Gecko) Chrome/130.0.0.0 Safari/537.36" version="24.8.4">
  <diagram name="Page-1" id="uk5Gxl087Siz1Dc6DedR">
    <mxGraphModel dx="2643" dy="975" grid="1" gridSize="10" guides="1" tooltips="1" connect="1" arrows="1" fold="1" page="1" pageScale="1" pageWidth="850" pageHeight="1100" math="0" shadow="0">
      <root>
        <mxCell id="0" />
        <mxCell id="1" parent="0" />
        <mxCell id="WZzNKSZbZgupmr9AaLVP-10" value="Sandwich" style="swimlane;fontStyle=0;childLayout=stackLayout;horizontal=1;startSize=30;fillColor=none;horizontalStack=0;resizeParent=1;resizeParentMax=0;resizeLast=0;collapsible=1;marginBottom=0;whiteSpace=wrap;html=1;labelBackgroundColor=none;" parent="1" vertex="1">
          <mxGeometry x="-220" y="340" width="140" height="168" as="geometry" />
        </mxCell>
        <mxCell id="WZzNKSZbZgupmr9AaLVP-205" value="HashMap&amp;lt;Size, Price&amp;gt;" style="text;strokeColor=none;fillColor=none;align=left;verticalAlign=top;spacingLeft=4;spacingRight=4;overflow=hidden;rotatable=0;points=[[0,0.5],[1,0.5]];portConstraint=eastwest;whiteSpace=wrap;html=1;labelBackgroundColor=none;" parent="WZzNKSZbZgupmr9AaLVP-10" vertex="1">
          <mxGeometry y="30" width="140" height="26" as="geometry" />
        </mxCell>
        <mxCell id="WZzNKSZbZgupmr9AaLVP-64" value="boolean isToasted" style="text;strokeColor=none;fillColor=none;align=left;verticalAlign=top;spacingLeft=4;spacingRight=4;overflow=hidden;rotatable=0;points=[[0,0.5],[1,0.5]];portConstraint=eastwest;whiteSpace=wrap;html=1;labelBackgroundColor=none;" parent="WZzNKSZbZgupmr9AaLVP-10" vertex="1">
          <mxGeometry y="56" width="140" height="26" as="geometry" />
        </mxCell>
        <mxCell id="WZzNKSZbZgupmr9AaLVP-76" value="enum breadType" style="text;strokeColor=none;fillColor=none;align=left;verticalAlign=top;spacingLeft=4;spacingRight=4;overflow=hidden;rotatable=0;points=[[0,0.5],[1,0.5]];portConstraint=eastwest;whiteSpace=wrap;html=1;labelBackgroundColor=none;" parent="WZzNKSZbZgupmr9AaLVP-10" vertex="1">
          <mxGeometry y="82" width="140" height="26" as="geometry" />
        </mxCell>
        <mxCell id="WZzNKSZbZgupmr9AaLVP-12" value="ArrayList Topping" style="text;strokeColor=none;fillColor=none;align=left;verticalAlign=top;spacingLeft=4;spacingRight=4;overflow=hidden;rotatable=0;points=[[0,0.5],[1,0.5]];portConstraint=eastwest;whiteSpace=wrap;html=1;labelBackgroundColor=none;" parent="WZzNKSZbZgupmr9AaLVP-10" vertex="1">
          <mxGeometry y="108" width="140" height="26" as="geometry" />
        </mxCell>
        <mxCell id="geYaQxWfy-8hWgXeI_JX-60" value="" style="line;strokeWidth=1;fillColor=none;align=left;verticalAlign=middle;spacingTop=-1;spacingLeft=3;spacingRight=3;rotatable=0;labelPosition=right;points=[];portConstraint=eastwest;strokeColor=inherit;" vertex="1" parent="WZzNKSZbZgupmr9AaLVP-10">
          <mxGeometry y="134" width="140" height="8" as="geometry" />
        </mxCell>
        <mxCell id="WZzNKSZbZgupmr9AaLVP-141" value="getPrice()" style="text;strokeColor=none;fillColor=none;align=left;verticalAlign=top;spacingLeft=4;spacingRight=4;overflow=hidden;rotatable=0;points=[[0,0.5],[1,0.5]];portConstraint=eastwest;whiteSpace=wrap;html=1;labelBackgroundColor=none;" parent="WZzNKSZbZgupmr9AaLVP-10" vertex="1">
          <mxGeometry y="142" width="140" height="26" as="geometry" />
        </mxCell>
        <mxCell id="WZzNKSZbZgupmr9AaLVP-22" value="Chips" style="swimlane;fontStyle=0;childLayout=stackLayout;horizontal=1;startSize=26;fillColor=none;horizontalStack=0;resizeParent=1;resizeParentMax=0;resizeLast=0;collapsible=1;marginBottom=0;whiteSpace=wrap;html=1;labelBackgroundColor=none;" parent="1" vertex="1">
          <mxGeometry x="-560" y="560" width="100" height="112" as="geometry" />
        </mxCell>
        <mxCell id="WZzNKSZbZgupmr9AaLVP-23" value="String type" style="text;strokeColor=none;fillColor=none;align=left;verticalAlign=top;spacingLeft=4;spacingRight=4;overflow=hidden;rotatable=0;points=[[0,0.5],[1,0.5]];portConstraint=eastwest;whiteSpace=wrap;html=1;labelBackgroundColor=none;" parent="WZzNKSZbZgupmr9AaLVP-22" vertex="1">
          <mxGeometry y="26" width="100" height="26" as="geometry" />
        </mxCell>
        <mxCell id="geYaQxWfy-8hWgXeI_JX-62" value="String type" style="text;strokeColor=none;fillColor=none;align=left;verticalAlign=top;spacingLeft=4;spacingRight=4;overflow=hidden;rotatable=0;points=[[0,0.5],[1,0.5]];portConstraint=eastwest;whiteSpace=wrap;html=1;labelBackgroundColor=none;" vertex="1" parent="WZzNKSZbZgupmr9AaLVP-22">
          <mxGeometry y="52" width="100" height="26" as="geometry" />
        </mxCell>
        <mxCell id="geYaQxWfy-8hWgXeI_JX-61" value="" style="line;strokeWidth=1;fillColor=none;align=left;verticalAlign=middle;spacingTop=-1;spacingLeft=3;spacingRight=3;rotatable=0;labelPosition=right;points=[];portConstraint=eastwest;strokeColor=inherit;" vertex="1" parent="WZzNKSZbZgupmr9AaLVP-22">
          <mxGeometry y="78" width="100" height="8" as="geometry" />
        </mxCell>
        <mxCell id="WZzNKSZbZgupmr9AaLVP-163" value="getPrice()" style="text;strokeColor=none;fillColor=none;align=left;verticalAlign=top;spacingLeft=4;spacingRight=4;overflow=hidden;rotatable=0;points=[[0,0.5],[1,0.5]];portConstraint=eastwest;whiteSpace=wrap;html=1;labelBackgroundColor=none;" parent="WZzNKSZbZgupmr9AaLVP-22" vertex="1">
          <mxGeometry y="86" width="100" height="26" as="geometry" />
        </mxCell>
        <mxCell id="WZzNKSZbZgupmr9AaLVP-65" value="Order" style="swimlane;fontStyle=0;childLayout=stackLayout;horizontal=1;startSize=30;fillColor=none;horizontalStack=0;resizeParent=1;resizeParentMax=0;resizeLast=0;collapsible=1;marginBottom=0;whiteSpace=wrap;html=1;labelBackgroundColor=none;" parent="1" vertex="1">
          <mxGeometry x="-790" y="560" width="130" height="134" as="geometry">
            <mxRectangle x="590" y="80" width="80" height="30" as="alternateBounds" />
          </mxGeometry>
        </mxCell>
        <mxCell id="WZzNKSZbZgupmr9AaLVP-88" value="DateTime date" style="text;strokeColor=none;fillColor=none;align=left;verticalAlign=top;spacingLeft=4;spacingRight=4;overflow=hidden;rotatable=0;points=[[0,0.5],[1,0.5]];portConstraint=eastwest;whiteSpace=wrap;html=1;labelBackgroundColor=none;" parent="WZzNKSZbZgupmr9AaLVP-65" vertex="1">
          <mxGeometry y="30" width="130" height="26" as="geometry" />
        </mxCell>
        <mxCell id="WZzNKSZbZgupmr9AaLVP-170" value="ArrayList&amp;lt;Sandwich&amp;gt;" style="text;strokeColor=none;fillColor=none;align=left;verticalAlign=top;spacingLeft=4;spacingRight=4;overflow=hidden;rotatable=0;points=[[0,0.5],[1,0.5]];portConstraint=eastwest;whiteSpace=wrap;html=1;labelBackgroundColor=none;" parent="WZzNKSZbZgupmr9AaLVP-65" vertex="1">
          <mxGeometry y="56" width="130" height="26" as="geometry" />
        </mxCell>
        <mxCell id="WZzNKSZbZgupmr9AaLVP-171" value="ArrayList&amp;lt;Drink&amp;gt;" style="text;strokeColor=none;fillColor=none;align=left;verticalAlign=top;spacingLeft=4;spacingRight=4;overflow=hidden;rotatable=0;points=[[0,0.5],[1,0.5]];portConstraint=eastwest;whiteSpace=wrap;html=1;labelBackgroundColor=none;" parent="WZzNKSZbZgupmr9AaLVP-65" vertex="1">
          <mxGeometry y="82" width="130" height="26" as="geometry" />
        </mxCell>
        <mxCell id="WZzNKSZbZgupmr9AaLVP-172" value="ArrayList&amp;lt;Chips&amp;gt;" style="text;strokeColor=none;fillColor=none;align=left;verticalAlign=top;spacingLeft=4;spacingRight=4;overflow=hidden;rotatable=0;points=[[0,0.5],[1,0.5]];portConstraint=eastwest;whiteSpace=wrap;html=1;labelBackgroundColor=none;" parent="WZzNKSZbZgupmr9AaLVP-65" vertex="1">
          <mxGeometry y="108" width="130" height="26" as="geometry" />
        </mxCell>
        <mxCell id="WZzNKSZbZgupmr9AaLVP-100" value="&lt;font style=&quot;font-size: 24px;&quot;&gt;Deli Class Diagram&lt;/font&gt;" style="text;html=1;align=center;verticalAlign=middle;resizable=0;points=[];autosize=1;strokeColor=none;fillColor=none;labelBackgroundColor=none;" parent="1" vertex="1">
          <mxGeometry x="130" width="230" height="40" as="geometry" />
        </mxCell>
        <mxCell id="WZzNKSZbZgupmr9AaLVP-143" value="&lt;span style=&quot;background-color: initial;&quot;&gt;Topping&lt;/span&gt;" style="swimlane;fontStyle=0;childLayout=stackLayout;horizontal=1;startSize=30;fillColor=none;horizontalStack=0;resizeParent=1;resizeParentMax=0;resizeLast=0;collapsible=1;marginBottom=0;whiteSpace=wrap;html=1;labelBackgroundColor=none;" parent="1" vertex="1">
          <mxGeometry x="-330" y="80" width="130" height="90" as="geometry" />
        </mxCell>
        <mxCell id="WZzNKSZbZgupmr9AaLVP-189" value="String toppingName" style="text;strokeColor=none;fillColor=none;align=left;verticalAlign=top;spacingLeft=4;spacingRight=4;overflow=hidden;rotatable=0;points=[[0,0.5],[1,0.5]];portConstraint=eastwest;whiteSpace=wrap;html=1;labelBackgroundColor=none;" parent="WZzNKSZbZgupmr9AaLVP-143" vertex="1">
          <mxGeometry y="30" width="130" height="26" as="geometry" />
        </mxCell>
        <mxCell id="geYaQxWfy-8hWgXeI_JX-38" value="" style="line;strokeWidth=1;fillColor=none;align=left;verticalAlign=middle;spacingTop=-1;spacingLeft=3;spacingRight=3;rotatable=0;labelPosition=right;points=[];portConstraint=eastwest;strokeColor=inherit;" vertex="1" parent="WZzNKSZbZgupmr9AaLVP-143">
          <mxGeometry y="56" width="130" height="8" as="geometry" />
        </mxCell>
        <mxCell id="geYaQxWfy-8hWgXeI_JX-37" value="getPrice() // Returns 0" style="text;strokeColor=none;fillColor=none;align=left;verticalAlign=top;spacingLeft=4;spacingRight=4;overflow=hidden;rotatable=0;points=[[0,0.5],[1,0.5]];portConstraint=eastwest;whiteSpace=wrap;html=1;labelBackgroundColor=none;" vertex="1" parent="WZzNKSZbZgupmr9AaLVP-143">
          <mxGeometry y="64" width="130" height="26" as="geometry" />
        </mxCell>
        <mxCell id="WZzNKSZbZgupmr9AaLVP-151" value="OrderCalculationService" style="swimlane;fontStyle=0;childLayout=stackLayout;horizontal=1;startSize=26;fillColor=none;horizontalStack=0;resizeParent=1;resizeParentMax=0;resizeLast=0;collapsible=1;marginBottom=0;whiteSpace=wrap;html=1;labelBackgroundColor=none;" parent="1" vertex="1">
          <mxGeometry x="10.75" y="730" width="190" height="78" as="geometry" />
        </mxCell>
        <mxCell id="WZzNKSZbZgupmr9AaLVP-152" value="displayAllToppings(Sandwich)" style="text;strokeColor=none;fillColor=none;align=left;verticalAlign=top;spacingLeft=4;spacingRight=4;overflow=hidden;rotatable=0;points=[[0,0.5],[1,0.5]];portConstraint=eastwest;whiteSpace=wrap;html=1;labelBackgroundColor=none;" parent="WZzNKSZbZgupmr9AaLVP-151" vertex="1">
          <mxGeometry y="26" width="190" height="26" as="geometry" />
        </mxCell>
        <mxCell id="xHMpw6nMknU9mZ7vblhI-9" value="displayAllItems(ArrayList&amp;lt;T&amp;gt;)" style="text;strokeColor=none;fillColor=none;align=left;verticalAlign=top;spacingLeft=4;spacingRight=4;overflow=hidden;rotatable=0;points=[[0,0.5],[1,0.5]];portConstraint=eastwest;whiteSpace=wrap;html=1;labelBackgroundColor=none;" parent="WZzNKSZbZgupmr9AaLVP-151" vertex="1">
          <mxGeometry y="52" width="190" height="26" as="geometry" />
        </mxCell>
        <mxCell id="geYaQxWfy-8hWgXeI_JX-51" style="edgeStyle=orthogonalEdgeStyle;rounded=0;orthogonalLoop=1;jettySize=auto;html=1;" edge="1" parent="1" source="WZzNKSZbZgupmr9AaLVP-180" target="WZzNKSZbZgupmr9AaLVP-143">
          <mxGeometry relative="1" as="geometry">
            <Array as="points">
              <mxPoint x="-305" y="240" />
            </Array>
          </mxGeometry>
        </mxCell>
        <mxCell id="WZzNKSZbZgupmr9AaLVP-180" value="&lt;div&gt;&lt;span style=&quot;background-color: initial;&quot;&gt;&amp;lt;abstract&amp;gt;&lt;/span&gt;&lt;/div&gt;&lt;div&gt;&lt;span style=&quot;background-color: initial;&quot;&gt;PremiumTopping&lt;/span&gt;&lt;/div&gt;" style="swimlane;fontStyle=0;childLayout=stackLayout;horizontal=1;startSize=30;fillColor=none;horizontalStack=0;resizeParent=1;resizeParentMax=0;resizeLast=0;collapsible=1;marginBottom=0;whiteSpace=wrap;html=1;labelBackgroundColor=none;" parent="1" vertex="1">
          <mxGeometry x="-610" y="220" width="170" height="116" as="geometry" />
        </mxCell>
        <mxCell id="WZzNKSZbZgupmr9AaLVP-198" value="enum size" style="text;strokeColor=none;fillColor=none;align=left;verticalAlign=top;spacingLeft=4;spacingRight=4;overflow=hidden;rotatable=0;points=[[0,0.5],[1,0.5]];portConstraint=eastwest;whiteSpace=wrap;html=1;labelBackgroundColor=none;" parent="WZzNKSZbZgupmr9AaLVP-180" vertex="1">
          <mxGeometry y="30" width="170" height="26" as="geometry" />
        </mxCell>
        <mxCell id="xHMpw6nMknU9mZ7vblhI-43" value="BigDecimal price" style="text;strokeColor=none;fillColor=none;align=left;verticalAlign=top;spacingLeft=4;spacingRight=4;overflow=hidden;rotatable=0;points=[[0,0.5],[1,0.5]];portConstraint=eastwest;whiteSpace=wrap;html=1;labelBackgroundColor=none;" parent="WZzNKSZbZgupmr9AaLVP-180" vertex="1">
          <mxGeometry y="56" width="170" height="26" as="geometry" />
        </mxCell>
        <mxCell id="geYaQxWfy-8hWgXeI_JX-70" value="" style="line;strokeWidth=1;fillColor=none;align=left;verticalAlign=middle;spacingTop=-1;spacingLeft=3;spacingRight=3;rotatable=0;labelPosition=right;points=[];portConstraint=eastwest;strokeColor=inherit;" vertex="1" parent="WZzNKSZbZgupmr9AaLVP-180">
          <mxGeometry y="82" width="170" height="8" as="geometry" />
        </mxCell>
        <mxCell id="geYaQxWfy-8hWgXeI_JX-68" value="getPrice() // Returns price" style="text;strokeColor=none;fillColor=none;align=left;verticalAlign=top;spacingLeft=4;spacingRight=4;overflow=hidden;rotatable=0;points=[[0,0.5],[1,0.5]];portConstraint=eastwest;whiteSpace=wrap;html=1;labelBackgroundColor=none;" vertex="1" parent="WZzNKSZbZgupmr9AaLVP-180">
          <mxGeometry y="90" width="170" height="26" as="geometry" />
        </mxCell>
        <mxCell id="WZzNKSZbZgupmr9AaLVP-208" value="FileManagementService" style="swimlane;fontStyle=0;childLayout=stackLayout;horizontal=1;startSize=26;fillColor=none;horizontalStack=0;resizeParent=1;resizeParentMax=0;resizeLast=0;collapsible=1;marginBottom=0;whiteSpace=wrap;html=1;labelBackgroundColor=none;" parent="1" vertex="1">
          <mxGeometry x="5.75" y="880" width="200" height="78" as="geometry" />
        </mxCell>
        <mxCell id="xHMpw6nMknU9mZ7vblhI-11" value="FILE" style="text;strokeColor=none;fillColor=none;align=left;verticalAlign=top;spacingLeft=4;spacingRight=4;overflow=hidden;rotatable=0;points=[[0,0.5],[1,0.5]];portConstraint=eastwest;whiteSpace=wrap;html=1;labelBackgroundColor=none;" parent="WZzNKSZbZgupmr9AaLVP-208" vertex="1">
          <mxGeometry y="26" width="200" height="26" as="geometry" />
        </mxCell>
        <mxCell id="WZzNKSZbZgupmr9AaLVP-209" value="createReceipt(Order)" style="text;strokeColor=none;fillColor=none;align=left;verticalAlign=top;spacingLeft=4;spacingRight=4;overflow=hidden;rotatable=0;points=[[0,0.5],[1,0.5]];portConstraint=eastwest;whiteSpace=wrap;html=1;labelBackgroundColor=none;" parent="WZzNKSZbZgupmr9AaLVP-208" vertex="1">
          <mxGeometry y="52" width="200" height="26" as="geometry" />
        </mxCell>
        <mxCell id="xHMpw6nMknU9mZ7vblhI-21" value="enum BreadType" style="swimlane;fontStyle=0;childLayout=stackLayout;horizontal=1;startSize=26;fillColor=none;horizontalStack=0;resizeParent=1;resizeParentMax=0;resizeLast=0;collapsible=1;marginBottom=0;whiteSpace=wrap;html=1;labelBackgroundColor=none;" parent="1" vertex="1">
          <mxGeometry x="-380.75" y="560" width="131.5" height="130" as="geometry" />
        </mxCell>
        <mxCell id="xHMpw6nMknU9mZ7vblhI-22" value="White" style="text;strokeColor=none;fillColor=none;align=left;verticalAlign=top;spacingLeft=4;spacingRight=4;overflow=hidden;rotatable=0;points=[[0,0.5],[1,0.5]];portConstraint=eastwest;whiteSpace=wrap;html=1;labelBackgroundColor=none;" parent="xHMpw6nMknU9mZ7vblhI-21" vertex="1">
          <mxGeometry y="26" width="131.5" height="26" as="geometry" />
        </mxCell>
        <mxCell id="xHMpw6nMknU9mZ7vblhI-23" value="Wheat" style="text;strokeColor=none;fillColor=none;align=left;verticalAlign=top;spacingLeft=4;spacingRight=4;overflow=hidden;rotatable=0;points=[[0,0.5],[1,0.5]];portConstraint=eastwest;whiteSpace=wrap;html=1;labelBackgroundColor=none;" parent="xHMpw6nMknU9mZ7vblhI-21" vertex="1">
          <mxGeometry y="52" width="131.5" height="26" as="geometry" />
        </mxCell>
        <mxCell id="xHMpw6nMknU9mZ7vblhI-24" value="Rye" style="text;strokeColor=none;fillColor=none;align=left;verticalAlign=top;spacingLeft=4;spacingRight=4;overflow=hidden;rotatable=0;points=[[0,0.5],[1,0.5]];portConstraint=eastwest;whiteSpace=wrap;html=1;labelBackgroundColor=none;" parent="xHMpw6nMknU9mZ7vblhI-21" vertex="1">
          <mxGeometry y="78" width="131.5" height="26" as="geometry" />
        </mxCell>
        <mxCell id="xHMpw6nMknU9mZ7vblhI-32" value="Wrap" style="text;strokeColor=none;fillColor=none;align=left;verticalAlign=top;spacingLeft=4;spacingRight=4;overflow=hidden;rotatable=0;points=[[0,0.5],[1,0.5]];portConstraint=eastwest;whiteSpace=wrap;html=1;labelBackgroundColor=none;" parent="xHMpw6nMknU9mZ7vblhI-21" vertex="1">
          <mxGeometry y="104" width="131.5" height="26" as="geometry" />
        </mxCell>
        <mxCell id="xHMpw6nMknU9mZ7vblhI-46" value="SandwichFormatService" style="swimlane;fontStyle=0;childLayout=stackLayout;horizontal=1;startSize=26;fillColor=none;horizontalStack=0;resizeParent=1;resizeParentMax=0;resizeLast=0;collapsible=1;marginBottom=0;whiteSpace=wrap;html=1;labelBackgroundColor=none;" parent="1" vertex="1">
          <mxGeometry x="10.75" y="586" width="190" height="78" as="geometry" />
        </mxCell>
        <mxCell id="xHMpw6nMknU9mZ7vblhI-47" value="processAddTopping()" style="text;strokeColor=none;fillColor=none;align=left;verticalAlign=top;spacingLeft=4;spacingRight=4;overflow=hidden;rotatable=0;points=[[0,0.5],[1,0.5]];portConstraint=eastwest;whiteSpace=wrap;html=1;labelBackgroundColor=none;" parent="xHMpw6nMknU9mZ7vblhI-46" vertex="1">
          <mxGeometry y="26" width="190" height="26" as="geometry" />
        </mxCell>
        <mxCell id="xHMpw6nMknU9mZ7vblhI-48" value="processRemoveTopping()" style="text;strokeColor=none;fillColor=none;align=left;verticalAlign=top;spacingLeft=4;spacingRight=4;overflow=hidden;rotatable=0;points=[[0,0.5],[1,0.5]];portConstraint=eastwest;whiteSpace=wrap;html=1;labelBackgroundColor=none;" parent="xHMpw6nMknU9mZ7vblhI-46" vertex="1">
          <mxGeometry y="52" width="190" height="26" as="geometry" />
        </mxCell>
        <mxCell id="tzerqt3c-VgbQqbqvUHQ-2" value="enum Size" style="swimlane;fontStyle=0;childLayout=stackLayout;horizontal=1;startSize=26;fillColor=none;horizontalStack=0;resizeParent=1;resizeParentMax=0;resizeLast=0;collapsible=1;marginBottom=0;whiteSpace=wrap;html=1;labelBackgroundColor=none;" parent="1" vertex="1">
          <mxGeometry x="-140" y="80" width="103" height="104" as="geometry" />
        </mxCell>
        <mxCell id="tzerqt3c-VgbQqbqvUHQ-3" value="SMALL" style="text;strokeColor=none;fillColor=none;align=left;verticalAlign=top;spacingLeft=4;spacingRight=4;overflow=hidden;rotatable=0;points=[[0,0.5],[1,0.5]];portConstraint=eastwest;whiteSpace=wrap;html=1;labelBackgroundColor=none;" parent="tzerqt3c-VgbQqbqvUHQ-2" vertex="1">
          <mxGeometry y="26" width="103" height="26" as="geometry" />
        </mxCell>
        <mxCell id="tzerqt3c-VgbQqbqvUHQ-4" value="MEDIUM" style="text;strokeColor=none;fillColor=none;align=left;verticalAlign=top;spacingLeft=4;spacingRight=4;overflow=hidden;rotatable=0;points=[[0,0.5],[1,0.5]];portConstraint=eastwest;whiteSpace=wrap;html=1;labelBackgroundColor=none;" parent="tzerqt3c-VgbQqbqvUHQ-2" vertex="1">
          <mxGeometry y="52" width="103" height="26" as="geometry" />
        </mxCell>
        <mxCell id="tzerqt3c-VgbQqbqvUHQ-5" value="LARGE" style="text;strokeColor=none;fillColor=none;align=left;verticalAlign=top;spacingLeft=4;spacingRight=4;overflow=hidden;rotatable=0;points=[[0,0.5],[1,0.5]];portConstraint=eastwest;whiteSpace=wrap;html=1;labelBackgroundColor=none;" parent="tzerqt3c-VgbQqbqvUHQ-2" vertex="1">
          <mxGeometry y="78" width="103" height="26" as="geometry" />
        </mxCell>
        <mxCell id="tzerqt3c-VgbQqbqvUHQ-1" style="edgeStyle=orthogonalEdgeStyle;rounded=0;orthogonalLoop=1;jettySize=auto;html=1;" parent="1" source="WZzNKSZbZgupmr9AaLVP-205" target="tzerqt3c-VgbQqbqvUHQ-2" edge="1">
          <mxGeometry relative="1" as="geometry">
            <mxPoint x="-100" y="190" as="targetPoint" />
            <Array as="points">
              <mxPoint x="-10" y="383" />
              <mxPoint x="-10" y="132" />
            </Array>
          </mxGeometry>
        </mxCell>
        <mxCell id="geYaQxWfy-8hWgXeI_JX-3" value="enum MenuState" style="swimlane;fontStyle=0;childLayout=stackLayout;horizontal=1;startSize=26;fillColor=none;horizontalStack=0;resizeParent=1;resizeParentMax=0;resizeLast=0;collapsible=1;marginBottom=0;whiteSpace=wrap;html=1;labelBackgroundColor=none;" vertex="1" parent="1">
          <mxGeometry x="-530" y="781" width="140" height="216" as="geometry" />
        </mxCell>
        <mxCell id="geYaQxWfy-8hWgXeI_JX-25" value="HOME_SCREEN" style="text;strokeColor=none;fillColor=none;align=left;verticalAlign=top;spacingLeft=4;spacingRight=4;overflow=hidden;rotatable=0;points=[[0,0.5],[1,0.5]];portConstraint=eastwest;whiteSpace=wrap;html=1;labelBackgroundColor=none;" vertex="1" parent="geYaQxWfy-8hWgXeI_JX-3">
          <mxGeometry y="26" width="140" height="26" as="geometry" />
        </mxCell>
        <mxCell id="geYaQxWfy-8hWgXeI_JX-26" value="ORDER_SCREEN" style="text;strokeColor=none;fillColor=none;align=left;verticalAlign=top;spacingLeft=4;spacingRight=4;overflow=hidden;rotatable=0;points=[[0,0.5],[1,0.5]];portConstraint=eastwest;whiteSpace=wrap;html=1;labelBackgroundColor=none;" vertex="1" parent="geYaQxWfy-8hWgXeI_JX-3">
          <mxGeometry y="52" width="140" height="26" as="geometry" />
        </mxCell>
        <mxCell id="geYaQxWfy-8hWgXeI_JX-27" value="String title" style="text;strokeColor=none;fillColor=none;align=left;verticalAlign=top;spacingLeft=4;spacingRight=4;overflow=hidden;rotatable=0;points=[[0,0.5],[1,0.5]];portConstraint=eastwest;whiteSpace=wrap;html=1;labelBackgroundColor=none;" vertex="1" parent="geYaQxWfy-8hWgXeI_JX-3">
          <mxGeometry y="78" width="140" height="26" as="geometry" />
        </mxCell>
        <mxCell id="geYaQxWfy-8hWgXeI_JX-28" value="String options" style="text;strokeColor=none;fillColor=none;align=left;verticalAlign=top;spacingLeft=4;spacingRight=4;overflow=hidden;rotatable=0;points=[[0,0.5],[1,0.5]];portConstraint=eastwest;whiteSpace=wrap;html=1;labelBackgroundColor=none;" vertex="1" parent="geYaQxWfy-8hWgXeI_JX-3">
          <mxGeometry y="104" width="140" height="26" as="geometry" />
        </mxCell>
        <mxCell id="geYaQxWfy-8hWgXeI_JX-33" value="" style="line;strokeWidth=1;fillColor=none;align=left;verticalAlign=middle;spacingTop=-1;spacingLeft=3;spacingRight=3;rotatable=0;labelPosition=right;points=[];portConstraint=eastwest;strokeColor=inherit;" vertex="1" parent="geYaQxWfy-8hWgXeI_JX-3">
          <mxGeometry y="130" width="140" height="8" as="geometry" />
        </mxCell>
        <mxCell id="geYaQxWfy-8hWgXeI_JX-34" value="getTitle()" style="text;strokeColor=none;fillColor=none;align=left;verticalAlign=top;spacingLeft=4;spacingRight=4;overflow=hidden;rotatable=0;points=[[0,0.5],[1,0.5]];portConstraint=eastwest;whiteSpace=wrap;html=1;labelBackgroundColor=none;" vertex="1" parent="geYaQxWfy-8hWgXeI_JX-3">
          <mxGeometry y="138" width="140" height="26" as="geometry" />
        </mxCell>
        <mxCell id="geYaQxWfy-8hWgXeI_JX-35" value="getOptions()" style="text;strokeColor=none;fillColor=none;align=left;verticalAlign=top;spacingLeft=4;spacingRight=4;overflow=hidden;rotatable=0;points=[[0,0.5],[1,0.5]];portConstraint=eastwest;whiteSpace=wrap;html=1;labelBackgroundColor=none;" vertex="1" parent="geYaQxWfy-8hWgXeI_JX-3">
          <mxGeometry y="164" width="140" height="26" as="geometry" />
        </mxCell>
        <mxCell id="geYaQxWfy-8hWgXeI_JX-36" value="getOptionsList()" style="text;strokeColor=none;fillColor=none;align=left;verticalAlign=top;spacingLeft=4;spacingRight=4;overflow=hidden;rotatable=0;points=[[0,0.5],[1,0.5]];portConstraint=eastwest;whiteSpace=wrap;html=1;labelBackgroundColor=none;" vertex="1" parent="geYaQxWfy-8hWgXeI_JX-3">
          <mxGeometry y="190" width="140" height="26" as="geometry" />
        </mxCell>
        <mxCell id="geYaQxWfy-8hWgXeI_JX-47" style="edgeStyle=orthogonalEdgeStyle;rounded=0;orthogonalLoop=1;jettySize=auto;html=1;" edge="1" parent="1" source="geYaQxWfy-8hWgXeI_JX-39" target="WZzNKSZbZgupmr9AaLVP-180">
          <mxGeometry relative="1" as="geometry" />
        </mxCell>
        <mxCell id="geYaQxWfy-8hWgXeI_JX-39" value="&lt;div&gt;&lt;span style=&quot;background-color: initial;&quot;&gt;Meat&lt;/span&gt;&lt;/div&gt;" style="swimlane;fontStyle=0;childLayout=stackLayout;horizontal=1;startSize=30;fillColor=none;horizontalStack=0;resizeParent=1;resizeParentMax=0;resizeLast=0;collapsible=1;marginBottom=0;whiteSpace=wrap;html=1;labelBackgroundColor=none;" vertex="1" parent="1">
          <mxGeometry x="-800" y="340" width="160" height="70" as="geometry" />
        </mxCell>
        <mxCell id="geYaQxWfy-8hWgXeI_JX-42" value="static final HashMap&amp;lt;Size, BigDecimal&amp;gt; SIZE_PRICES" style="text;strokeColor=none;fillColor=none;align=left;verticalAlign=top;spacingLeft=4;spacingRight=4;overflow=hidden;rotatable=0;points=[[0,0.5],[1,0.5]];portConstraint=eastwest;whiteSpace=wrap;html=1;labelBackgroundColor=none;" vertex="1" parent="geYaQxWfy-8hWgXeI_JX-39">
          <mxGeometry y="30" width="160" height="40" as="geometry" />
        </mxCell>
        <mxCell id="geYaQxWfy-8hWgXeI_JX-52" style="edgeStyle=orthogonalEdgeStyle;rounded=0;orthogonalLoop=1;jettySize=auto;html=1;" edge="1" parent="1" source="WZzNKSZbZgupmr9AaLVP-198" target="tzerqt3c-VgbQqbqvUHQ-2">
          <mxGeometry relative="1" as="geometry" />
        </mxCell>
        <mxCell id="geYaQxWfy-8hWgXeI_JX-55" style="edgeStyle=orthogonalEdgeStyle;rounded=0;orthogonalLoop=1;jettySize=auto;html=1;jumpStyle=arc;" edge="1" parent="1" source="geYaQxWfy-8hWgXeI_JX-53" target="WZzNKSZbZgupmr9AaLVP-143">
          <mxGeometry relative="1" as="geometry" />
        </mxCell>
        <mxCell id="geYaQxWfy-8hWgXeI_JX-53" value="&lt;div&gt;&lt;span style=&quot;background-color: initial;&quot;&gt;Sauce&lt;/span&gt;&lt;/div&gt;" style="swimlane;fontStyle=0;childLayout=stackLayout;horizontal=1;startSize=30;fillColor=none;horizontalStack=0;resizeParent=1;resizeParentMax=0;resizeLast=0;collapsible=1;marginBottom=0;whiteSpace=wrap;html=1;labelBackgroundColor=none;" vertex="1" parent="1">
          <mxGeometry x="-360" y="336" width="90" height="56" as="geometry" />
        </mxCell>
        <mxCell id="geYaQxWfy-8hWgXeI_JX-65" style="edgeStyle=orthogonalEdgeStyle;rounded=0;orthogonalLoop=1;jettySize=auto;html=1;" edge="1" parent="1" source="geYaQxWfy-8hWgXeI_JX-63" target="WZzNKSZbZgupmr9AaLVP-180">
          <mxGeometry relative="1" as="geometry">
            <Array as="points">
              <mxPoint x="-525" y="500" />
            </Array>
          </mxGeometry>
        </mxCell>
        <mxCell id="geYaQxWfy-8hWgXeI_JX-63" value="&lt;div&gt;&lt;span style=&quot;background-color: initial;&quot;&gt;Cheese&lt;/span&gt;&lt;/div&gt;" style="swimlane;fontStyle=0;childLayout=stackLayout;horizontal=1;startSize=30;fillColor=none;horizontalStack=0;resizeParent=1;resizeParentMax=0;resizeLast=0;collapsible=1;marginBottom=0;whiteSpace=wrap;html=1;labelBackgroundColor=none;" vertex="1" parent="1">
          <mxGeometry x="-800" y="438" width="160" height="70" as="geometry" />
        </mxCell>
        <mxCell id="geYaQxWfy-8hWgXeI_JX-64" value="static final HashMap&amp;lt;Size, BigDecimal&amp;gt; SIZE_PRICES" style="text;strokeColor=none;fillColor=none;align=left;verticalAlign=top;spacingLeft=4;spacingRight=4;overflow=hidden;rotatable=0;points=[[0,0.5],[1,0.5]];portConstraint=eastwest;whiteSpace=wrap;html=1;labelBackgroundColor=none;" vertex="1" parent="geYaQxWfy-8hWgXeI_JX-63">
          <mxGeometry y="30" width="160" height="40" as="geometry" />
        </mxCell>
        <mxCell id="WZzNKSZbZgupmr9AaLVP-139" value="OrderController" style="swimlane;fontStyle=0;childLayout=stackLayout;horizontal=1;startSize=26;fillColor=none;horizontalStack=0;resizeParent=1;resizeParentMax=0;resizeLast=0;collapsible=1;marginBottom=0;whiteSpace=wrap;html=1;labelBackgroundColor=none;" parent="1" vertex="1">
          <mxGeometry x="35.75" y="400" width="140" height="130" as="geometry" />
        </mxCell>
        <mxCell id="xHMpw6nMknU9mZ7vblhI-15" value="Order order" style="text;strokeColor=none;fillColor=none;align=left;verticalAlign=top;spacingLeft=4;spacingRight=4;overflow=hidden;rotatable=0;points=[[0,0.5],[1,0.5]];portConstraint=eastwest;whiteSpace=wrap;html=1;labelBackgroundColor=none;" parent="WZzNKSZbZgupmr9AaLVP-139" vertex="1">
          <mxGeometry y="26" width="140" height="26" as="geometry" />
        </mxCell>
        <mxCell id="geYaQxWfy-8hWgXeI_JX-1" value="Display display" style="text;strokeColor=none;fillColor=none;align=left;verticalAlign=top;spacingLeft=4;spacingRight=4;overflow=hidden;rotatable=0;points=[[0,0.5],[1,0.5]];portConstraint=eastwest;whiteSpace=wrap;html=1;labelBackgroundColor=none;" vertex="1" parent="WZzNKSZbZgupmr9AaLVP-139">
          <mxGeometry y="52" width="140" height="26" as="geometry" />
        </mxCell>
        <mxCell id="geYaQxWfy-8hWgXeI_JX-2" value="enum MenuState" style="text;strokeColor=none;fillColor=none;align=left;verticalAlign=top;spacingLeft=4;spacingRight=4;overflow=hidden;rotatable=0;points=[[0,0.5],[1,0.5]];portConstraint=eastwest;whiteSpace=wrap;html=1;labelBackgroundColor=none;" vertex="1" parent="WZzNKSZbZgupmr9AaLVP-139">
          <mxGeometry y="78" width="140" height="26" as="geometry" />
        </mxCell>
        <mxCell id="xHMpw6nMknU9mZ7vblhI-34" value="processAddSandwich()" style="text;strokeColor=none;fillColor=none;align=left;verticalAlign=top;spacingLeft=4;spacingRight=4;overflow=hidden;rotatable=0;points=[[0,0.5],[1,0.5]];portConstraint=eastwest;whiteSpace=wrap;html=1;labelBackgroundColor=none;" parent="WZzNKSZbZgupmr9AaLVP-139" vertex="1">
          <mxGeometry y="104" width="140" height="26" as="geometry" />
        </mxCell>
        <mxCell id="geYaQxWfy-8hWgXeI_JX-72" value="Display" style="swimlane;fontStyle=0;childLayout=stackLayout;horizontal=1;startSize=26;fillColor=none;horizontalStack=0;resizeParent=1;resizeParentMax=0;resizeLast=0;collapsible=1;marginBottom=0;whiteSpace=wrap;html=1;labelBackgroundColor=none;" vertex="1" parent="1">
          <mxGeometry x="35.75" y="270" width="125" height="52" as="geometry" />
        </mxCell>
        <mxCell id="geYaQxWfy-8hWgXeI_JX-74" value="createReceipt(Order)" style="text;strokeColor=none;fillColor=none;align=left;verticalAlign=top;spacingLeft=4;spacingRight=4;overflow=hidden;rotatable=0;points=[[0,0.5],[1,0.5]];portConstraint=eastwest;whiteSpace=wrap;html=1;labelBackgroundColor=none;" vertex="1" parent="geYaQxWfy-8hWgXeI_JX-72">
          <mxGeometry y="26" width="125" height="26" as="geometry" />
        </mxCell>
        <mxCell id="geYaQxWfy-8hWgXeI_JX-76" style="edgeStyle=orthogonalEdgeStyle;rounded=0;orthogonalLoop=1;jettySize=auto;html=1;" edge="1" parent="1" source="WZzNKSZbZgupmr9AaLVP-76" target="xHMpw6nMknU9mZ7vblhI-21">
          <mxGeometry relative="1" as="geometry" />
        </mxCell>
        <mxCell id="geYaQxWfy-8hWgXeI_JX-78" style="edgeStyle=orthogonalEdgeStyle;rounded=0;orthogonalLoop=1;jettySize=auto;html=1;" edge="1" parent="1" source="geYaQxWfy-8hWgXeI_JX-2" target="geYaQxWfy-8hWgXeI_JX-3">
          <mxGeometry relative="1" as="geometry">
            <Array as="points">
              <mxPoint x="-40" y="491" />
              <mxPoint x="-40" y="860" />
            </Array>
          </mxGeometry>
        </mxCell>
      </root>
    </mxGraphModel>
  </diagram>
</mxfile>
